<mxfile host="Electron" modified="2025-02-20T10:35:23.387Z" agent="Mozilla/5.0 (Macintosh; Intel Mac OS X 10_15_7) AppleWebKit/537.36 (KHTML, like Gecko) draw.io/22.1.2 Chrome/114.0.5735.289 Electron/25.9.4 Safari/537.36" etag="CvrOBxD00RpTU0pdgKML" version="22.1.2" type="device">
  <diagram name="Page-1" id="yQiR362ddDtiFHZWLqsy">
    <mxGraphModel dx="2261" dy="797" grid="1" gridSize="10" guides="1" tooltips="1" connect="1" arrows="1" fold="1" page="1" pageScale="1" pageWidth="827" pageHeight="1169" math="0" shadow="0">
      <root>
        <mxCell id="0" />
        <mxCell id="1" parent="0" />
        <mxCell id="8x82bi2lTyPNWPK4kSOo-1" value="AWS Account" style="points=[[0,0],[0.25,0],[0.5,0],[0.75,0],[1,0],[1,0.25],[1,0.5],[1,0.75],[1,1],[0.75,1],[0.5,1],[0.25,1],[0,1],[0,0.75],[0,0.5],[0,0.25]];outlineConnect=0;gradientColor=none;html=1;whiteSpace=wrap;fontSize=12;fontStyle=0;container=1;pointerEvents=0;collapsible=0;recursiveResize=0;shape=mxgraph.aws4.group;grIcon=mxgraph.aws4.group_account;strokeColor=#CD2264;fillColor=none;verticalAlign=top;align=left;spacingLeft=30;fontColor=#CD2264;dashed=0;" parent="1" vertex="1">
          <mxGeometry x="-798" y="145.5" width="948" height="734.5" as="geometry" />
        </mxCell>
        <mxCell id="8x82bi2lTyPNWPK4kSOo-20" value="&lt;font&gt;VPC&lt;/font&gt;" style="points=[[0,0],[0.25,0],[0.5,0],[0.75,0],[1,0],[1,0.25],[1,0.5],[1,0.75],[1,1],[0.75,1],[0.5,1],[0.25,1],[0,1],[0,0.75],[0,0.5],[0,0.25]];outlineConnect=0;gradientColor=none;html=1;whiteSpace=wrap;fontSize=12;fontStyle=0;container=1;pointerEvents=0;collapsible=0;recursiveResize=0;shape=mxgraph.aws4.group;grIcon=mxgraph.aws4.group_vpc2;strokeColor=#8C4FFF;fillColor=none;verticalAlign=top;align=left;spacingLeft=30;fontColor=#000000;dashed=0;" parent="8x82bi2lTyPNWPK4kSOo-1" vertex="1">
          <mxGeometry x="21" y="40" width="557" height="560" as="geometry" />
        </mxCell>
        <mxCell id="N7j_AR3H26S9qxAbAxP2-9" value="App subnet(s)" style="points=[[0,0],[0.25,0],[0.5,0],[0.75,0],[1,0],[1,0.25],[1,0.5],[1,0.75],[1,1],[0.75,1],[0.5,1],[0.25,1],[0,1],[0,0.75],[0,0.5],[0,0.25]];outlineConnect=0;gradientColor=none;html=1;whiteSpace=wrap;fontSize=12;fontStyle=0;container=1;pointerEvents=0;collapsible=0;recursiveResize=0;shape=mxgraph.aws4.group;grIcon=mxgraph.aws4.group_security_group;grStroke=0;strokeColor=#00A4A6;fillColor=#E6F6F7;verticalAlign=top;align=left;spacingLeft=30;fontColor=#0F5F8C;dashed=0;" parent="8x82bi2lTyPNWPK4kSOo-20" vertex="1">
          <mxGeometry x="18" y="200" width="350" height="320" as="geometry" />
        </mxCell>
        <mxCell id="8x82bi2lTyPNWPK4kSOo-28" value="&lt;font style=&quot;font-size: 10px;&quot;&gt;EKS Security Group&lt;/font&gt;" style="fontStyle=0;verticalAlign=top;align=center;spacingTop=-2;fillColor=none;rounded=0;whiteSpace=wrap;html=1;strokeColor=#FF0000;strokeWidth=2;dashed=1;container=0;collapsible=0;expand=0;recursiveResize=0;fontColor=#000000;" parent="N7j_AR3H26S9qxAbAxP2-9" vertex="1">
          <mxGeometry x="20" y="30" width="110" height="140" as="geometry" />
        </mxCell>
        <mxCell id="8x82bi2lTyPNWPK4kSOo-29" value="&lt;font style=&quot;font-size: 10px;&quot;&gt;EC2 Security Group&lt;/font&gt;" style="fontStyle=0;verticalAlign=top;align=center;spacingTop=-2;fillColor=none;rounded=0;whiteSpace=wrap;html=1;strokeColor=#FF0000;strokeWidth=2;dashed=1;container=0;collapsible=0;expand=0;recursiveResize=0;fontColor=#000000;" parent="N7j_AR3H26S9qxAbAxP2-9" vertex="1">
          <mxGeometry x="140" y="30" width="91" height="140" as="geometry" />
        </mxCell>
        <mxCell id="Q1-zjagbTOdk_EL4tVqw-44" value="&lt;font style=&quot;font-size: 10px;&quot;&gt;EC2 Security Group&lt;/font&gt;" style="fontStyle=0;verticalAlign=top;align=center;spacingTop=-2;fillColor=none;rounded=0;whiteSpace=wrap;html=1;strokeColor=#FF0000;strokeWidth=2;dashed=1;container=0;collapsible=0;expand=0;recursiveResize=0;fontColor=#000000;" parent="N7j_AR3H26S9qxAbAxP2-9" vertex="1">
          <mxGeometry x="239" y="30" width="91" height="140" as="geometry" />
        </mxCell>
        <mxCell id="Q1-zjagbTOdk_EL4tVqw-10" value="" style="edgeStyle=orthogonalEdgeStyle;rounded=0;orthogonalLoop=1;jettySize=auto;html=1;endArrow=none;endFill=0;strokeWidth=6;fillColor=#e1d5e7;strokeColor=#BF93D4;curved=1;entryX=0.5;entryY=1;entryDx=0;entryDy=0;entryPerimeter=0;exitX=0.5;exitY=1;exitDx=0;exitDy=0;exitPerimeter=0;" parent="N7j_AR3H26S9qxAbAxP2-9" source="5aaCbgGbesECD_f8T4DI-8" target="8x82bi2lTyPNWPK4kSOo-27" edge="1">
          <mxGeometry relative="1" as="geometry">
            <Array as="points">
              <mxPoint x="184" y="140" />
              <mxPoint x="184" y="190" />
              <mxPoint x="285" y="190" />
            </Array>
          </mxGeometry>
        </mxCell>
        <mxCell id="Q1-zjagbTOdk_EL4tVqw-11" value="" style="edgeStyle=orthogonalEdgeStyle;rounded=0;orthogonalLoop=1;jettySize=auto;html=1;endArrow=none;endFill=0;strokeWidth=6;fillColor=#e1d5e7;strokeColor=#BF93D4;curved=1;exitX=0.5;exitY=1;exitDx=0;exitDy=0;exitPerimeter=0;entryX=0.5;entryY=1;entryDx=0;entryDy=0;entryPerimeter=0;" parent="N7j_AR3H26S9qxAbAxP2-9" source="5aaCbgGbesECD_f8T4DI-8" target="8x82bi2lTyPNWPK4kSOo-19" edge="1">
          <mxGeometry relative="1" as="geometry">
            <mxPoint x="226" y="79" as="sourcePoint" />
            <mxPoint x="60" y="150" as="targetPoint" />
            <Array as="points">
              <mxPoint x="183" y="190" />
              <mxPoint x="75" y="190" />
            </Array>
          </mxGeometry>
        </mxCell>
        <mxCell id="Q1-zjagbTOdk_EL4tVqw-13" value="&lt;font style=&quot;font-size: 9px;&quot;&gt;PortForwarding tunnel(s)&lt;/font&gt;" style="text;html=1;strokeColor=none;fillColor=none;align=center;verticalAlign=middle;whiteSpace=wrap;rounded=0;" parent="N7j_AR3H26S9qxAbAxP2-9" vertex="1">
          <mxGeometry x="108.94999999999999" y="192" width="132.1" height="10" as="geometry" />
        </mxCell>
        <mxCell id="5aaCbgGbesECD_f8T4DI-8" value="Bastion" style="outlineConnect=0;dashed=0;verticalLabelPosition=bottom;verticalAlign=top;align=center;html=1;shape=mxgraph.aws3.ec2;fillColor=#F58534;gradientColor=none;fontColor=#000000;" parent="N7j_AR3H26S9qxAbAxP2-9" vertex="1">
          <mxGeometry x="150" y="60" width="65.81" height="80" as="geometry" />
        </mxCell>
        <mxCell id="8x82bi2lTyPNWPK4kSOo-19" value="EKS Cluster" style="sketch=0;points=[[0,0,0],[0.25,0,0],[0.5,0,0],[0.75,0,0],[1,0,0],[0,1,0],[0.25,1,0],[0.5,1,0],[0.75,1,0],[1,1,0],[0,0.25,0],[0,0.5,0],[0,0.75,0],[1,0.25,0],[1,0.5,0],[1,0.75,0]];outlineConnect=0;fontColor=#000000;fillColor=#ED7100;strokeColor=#ffffff;dashed=0;verticalLabelPosition=bottom;verticalAlign=top;align=center;html=1;fontSize=12;fontStyle=0;aspect=fixed;shape=mxgraph.aws4.resourceIcon;resIcon=mxgraph.aws4.eks;" parent="N7j_AR3H26S9qxAbAxP2-9" vertex="1">
          <mxGeometry x="36" y="60" width="78" height="78" as="geometry" />
        </mxCell>
        <mxCell id="8x82bi2lTyPNWPK4kSOo-27" value="IA Node" style="outlineConnect=0;dashed=0;verticalLabelPosition=bottom;verticalAlign=top;align=center;html=1;shape=mxgraph.aws3.ec2;fillColor=#F58534;gradientColor=none;fontColor=#000000;" parent="N7j_AR3H26S9qxAbAxP2-9" vertex="1">
          <mxGeometry x="251.58999999999997" y="60" width="65.81" height="80" as="geometry" />
        </mxCell>
        <mxCell id="BO87fvhiGoIegcTH9E7s-8" value="Elasticache&lt;br&gt;(Redis)" style="sketch=0;points=[[0,0,0],[0.25,0,0],[0.5,0,0],[0.75,0,0],[1,0,0],[0,1,0],[0.25,1,0],[0.5,1,0],[0.75,1,0],[1,1,0],[0,0.25,0],[0,0.5,0],[0,0.75,0],[1,0.25,0],[1,0.5,0],[1,0.75,0]];outlineConnect=0;fontColor=#232F3E;fillColor=#C925D1;strokeColor=#ffffff;dashed=0;verticalLabelPosition=bottom;verticalAlign=top;align=center;html=1;fontSize=12;fontStyle=0;aspect=fixed;shape=mxgraph.aws4.resourceIcon;resIcon=mxgraph.aws4.elasticache;" parent="N7j_AR3H26S9qxAbAxP2-9" vertex="1">
          <mxGeometry x="30.950000000000003" y="206" width="78" height="78" as="geometry" />
        </mxCell>
        <mxCell id="8x82bi2lTyPNWPK4kSOo-21" value="" style="outlineConnect=0;dashed=0;verticalLabelPosition=bottom;verticalAlign=top;align=center;html=1;shape=mxgraph.aws3.endpoints;fillColor=#F58536;gradientColor=none;" parent="N7j_AR3H26S9qxAbAxP2-9" vertex="1">
          <mxGeometry x="140.5" y="248" width="69" height="72" as="geometry" />
        </mxCell>
        <mxCell id="8x82bi2lTyPNWPK4kSOo-35" value="VPC Endpoints" style="text;html=1;strokeColor=none;fillColor=none;align=center;verticalAlign=middle;whiteSpace=wrap;rounded=0;fontColor=#000000;" parent="N7j_AR3H26S9qxAbAxP2-9" vertex="1">
          <mxGeometry x="125" y="226" width="100" height="30" as="geometry" />
        </mxCell>
        <mxCell id="BO87fvhiGoIegcTH9E7s-11" value="MSK&lt;br&gt;(Kafka)&lt;br&gt;" style="sketch=0;points=[[0,0,0],[0.25,0,0],[0.5,0,0],[0.75,0,0],[1,0,0],[0,1,0],[0.25,1,0],[0.5,1,0],[0.75,1,0],[1,1,0],[0,0.25,0],[0,0.5,0],[0,0.75,0],[1,0.25,0],[1,0.5,0],[1,0.75,0]];outlineConnect=0;fontColor=#232F3E;fillColor=#8C4FFF;strokeColor=#ffffff;dashed=0;verticalLabelPosition=bottom;verticalAlign=top;align=center;html=1;fontSize=12;fontStyle=0;aspect=fixed;shape=mxgraph.aws4.resourceIcon;resIcon=mxgraph.aws4.managed_streaming_for_kafka;" parent="N7j_AR3H26S9qxAbAxP2-9" vertex="1">
          <mxGeometry x="245.5" y="206" width="78" height="78" as="geometry" />
        </mxCell>
        <mxCell id="N7j_AR3H26S9qxAbAxP2-6" value="Public subnet(s)" style="points=[[0,0],[0.25,0],[0.5,0],[0.75,0],[1,0],[1,0.25],[1,0.5],[1,0.75],[1,1],[0.75,1],[0.5,1],[0.25,1],[0,1],[0,0.75],[0,0.5],[0,0.25]];outlineConnect=0;gradientColor=none;html=1;whiteSpace=wrap;fontSize=12;fontStyle=0;container=1;pointerEvents=0;collapsible=0;recursiveResize=0;shape=mxgraph.aws4.group;grIcon=mxgraph.aws4.group_security_group;grStroke=0;strokeColor=#7AA116;fillColor=#F2F6E8;verticalAlign=top;align=left;spacingLeft=30;fontColor=#248814;dashed=0;" parent="8x82bi2lTyPNWPK4kSOo-20" vertex="1">
          <mxGeometry x="408" y="360" width="130" height="150" as="geometry" />
        </mxCell>
        <mxCell id="N7j_AR3H26S9qxAbAxP2-10" value="&amp;nbsp;NAT Gateway" style="outlineConnect=0;dashed=0;verticalLabelPosition=bottom;verticalAlign=top;align=center;html=1;shape=mxgraph.aws3.vpc_nat_gateway;fillColor=#F58534;gradientColor=none;" parent="N7j_AR3H26S9qxAbAxP2-6" vertex="1">
          <mxGeometry x="29.41" y="39.000000000000014" width="69" height="72" as="geometry" />
        </mxCell>
        <mxCell id="N7j_AR3H26S9qxAbAxP2-7" value="nwfw subnet(s)" style="points=[[0,0],[0.25,0],[0.5,0],[0.75,0],[1,0],[1,0.25],[1,0.5],[1,0.75],[1,1],[0.75,1],[0.5,1],[0.25,1],[0,1],[0,0.75],[0,0.5],[0,0.25]];outlineConnect=0;html=1;whiteSpace=wrap;fontSize=12;fontStyle=0;container=1;pointerEvents=0;collapsible=0;recursiveResize=0;shape=mxgraph.aws4.group;grIcon=mxgraph.aws4.group_security_group;grStroke=0;strokeColor=#b85450;fillColor=#f8cecc;verticalAlign=top;align=left;spacingLeft=30;dashed=0;fontColor=#990000;" parent="8x82bi2lTyPNWPK4kSOo-20" vertex="1">
          <mxGeometry x="408" y="190" width="130" height="150" as="geometry" />
        </mxCell>
        <mxCell id="N7j_AR3H26S9qxAbAxP2-11" value="Network Firewall" style="sketch=0;points=[[0,0,0],[0.25,0,0],[0.5,0,0],[0.75,0,0],[1,0,0],[0,1,0],[0.25,1,0],[0.5,1,0],[0.75,1,0],[1,1,0],[0,0.25,0],[0,0.5,0],[0,0.75,0],[1,0.25,0],[1,0.5,0],[1,0.75,0]];outlineConnect=0;fontColor=#232F3E;fillColor=#DD344C;strokeColor=#ffffff;dashed=0;verticalLabelPosition=bottom;verticalAlign=top;align=center;html=1;fontSize=12;fontStyle=0;aspect=fixed;shape=mxgraph.aws4.resourceIcon;resIcon=mxgraph.aws4.network_firewall;" parent="N7j_AR3H26S9qxAbAxP2-7" vertex="1">
          <mxGeometry x="24.91" y="36" width="78" height="78" as="geometry" />
        </mxCell>
        <mxCell id="N7j_AR3H26S9qxAbAxP2-22" value="" style="edgeStyle=orthogonalEdgeStyle;rounded=0;orthogonalLoop=1;jettySize=auto;html=1;exitX=0.5;exitY=0;exitDx=0;exitDy=0;exitPerimeter=0;entryX=0.5;entryY=1;entryDx=0;entryDy=0;entryPerimeter=0;" parent="8x82bi2lTyPNWPK4kSOo-20" source="N7j_AR3H26S9qxAbAxP2-10" target="N7j_AR3H26S9qxAbAxP2-11" edge="1">
          <mxGeometry relative="1" as="geometry">
            <mxPoint x="472" y="320" as="targetPoint" />
          </mxGeometry>
        </mxCell>
        <mxCell id="BO87fvhiGoIegcTH9E7s-9" value="DB subnet(s)" style="points=[[0,0],[0.25,0],[0.5,0],[0.75,0],[1,0],[1,0.25],[1,0.5],[1,0.75],[1,1],[0.75,1],[0.5,1],[0.25,1],[0,1],[0,0.75],[0,0.5],[0,0.25]];outlineConnect=0;html=1;whiteSpace=wrap;fontSize=12;fontStyle=0;container=1;pointerEvents=0;collapsible=0;recursiveResize=0;shape=mxgraph.aws4.group;grIcon=mxgraph.aws4.group_security_group;grStroke=0;strokeColor=#9673a6;fillColor=#e1d5e7;verticalAlign=top;align=left;spacingLeft=30;dashed=0;fontColor=#330066;" parent="8x82bi2lTyPNWPK4kSOo-20" vertex="1">
          <mxGeometry x="18" y="40" width="130" height="150" as="geometry" />
        </mxCell>
        <mxCell id="BO87fvhiGoIegcTH9E7s-7" value="DocumentDB &lt;br&gt;(Mongodb)" style="sketch=0;points=[[0,0,0],[0.25,0,0],[0.5,0,0],[0.75,0,0],[1,0,0],[0,1,0],[0.25,1,0],[0.5,1,0],[0.75,1,0],[1,1,0],[0,0.25,0],[0,0.5,0],[0,0.75,0],[1,0.25,0],[1,0.5,0],[1,0.75,0]];outlineConnect=0;fontColor=#232F3E;fillColor=#C925D1;strokeColor=#ffffff;dashed=0;verticalLabelPosition=bottom;verticalAlign=top;align=center;html=1;fontSize=12;fontStyle=0;aspect=fixed;shape=mxgraph.aws4.resourceIcon;resIcon=mxgraph.aws4.documentdb_with_mongodb_compatibility;" parent="BO87fvhiGoIegcTH9E7s-9" vertex="1">
          <mxGeometry x="26" y="36" width="78" height="78" as="geometry" />
        </mxCell>
        <mxCell id="BO87fvhiGoIegcTH9E7s-12" value="" style="edgeStyle=orthogonalEdgeStyle;rounded=0;orthogonalLoop=1;jettySize=auto;html=1;exitX=0.5;exitY=1;exitDx=0;exitDy=0;exitPerimeter=0;startArrow=classic;startFill=1;endArrow=none;endFill=0;" parent="8x82bi2lTyPNWPK4kSOo-20" source="N7j_AR3H26S9qxAbAxP2-12" target="N7j_AR3H26S9qxAbAxP2-11" edge="1">
          <mxGeometry relative="1" as="geometry">
            <mxPoint x="471" y="120" as="sourcePoint" />
          </mxGeometry>
        </mxCell>
        <mxCell id="N7j_AR3H26S9qxAbAxP2-12" value="Internet Gateway" style="outlineConnect=0;dashed=0;verticalLabelPosition=top;verticalAlign=bottom;align=center;html=1;shape=mxgraph.aws3.internet_gateway;fillColor=#F58534;gradientColor=none;labelPosition=center;" parent="8x82bi2lTyPNWPK4kSOo-20" vertex="1">
          <mxGeometry x="437.41" y="50" width="69" height="72" as="geometry" />
        </mxCell>
        <mxCell id="N7j_AR3H26S9qxAbAxP2-23" value="" style="edgeStyle=orthogonalEdgeStyle;rounded=0;orthogonalLoop=1;jettySize=auto;html=1;entryX=0;entryY=0.5;entryDx=0;entryDy=0;entryPerimeter=0;exitX=1;exitY=0.5;exitDx=0;exitDy=0;" parent="8x82bi2lTyPNWPK4kSOo-20" source="N7j_AR3H26S9qxAbAxP2-9" target="N7j_AR3H26S9qxAbAxP2-10" edge="1">
          <mxGeometry relative="1" as="geometry">
            <mxPoint x="371" y="350" as="sourcePoint" />
            <Array as="points">
              <mxPoint x="391" y="360" />
              <mxPoint x="391" y="435" />
            </Array>
          </mxGeometry>
        </mxCell>
        <mxCell id="N7j_AR3H26S9qxAbAxP2-15" value="" style="edgeStyle=orthogonalEdgeStyle;rounded=0;orthogonalLoop=1;jettySize=auto;html=1;entryX=0.5;entryY=1;entryDx=0;entryDy=0;entryPerimeter=0;startArrow=classic;startFill=1;exitX=0.5;exitY=0;exitDx=0;exitDy=0;exitPerimeter=0;" parent="8x82bi2lTyPNWPK4kSOo-1" source="8x82bi2lTyPNWPK4kSOo-18" target="8x82bi2lTyPNWPK4kSOo-21" edge="1">
          <mxGeometry relative="1" as="geometry">
            <Array as="points">
              <mxPoint x="59" y="580" />
              <mxPoint x="214" y="580" />
            </Array>
          </mxGeometry>
        </mxCell>
        <mxCell id="N7j_AR3H26S9qxAbAxP2-14" value="" style="edgeStyle=orthogonalEdgeStyle;rounded=0;orthogonalLoop=1;jettySize=auto;html=1;startArrow=classic;startFill=1;entryX=0.5;entryY=1;entryDx=0;entryDy=0;entryPerimeter=0;exitX=0.5;exitY=0;exitDx=0;exitDy=0;exitPerimeter=0;" parent="8x82bi2lTyPNWPK4kSOo-1" source="8x82bi2lTyPNWPK4kSOo-25" target="8x82bi2lTyPNWPK4kSOo-21" edge="1">
          <mxGeometry relative="1" as="geometry">
            <Array as="points">
              <mxPoint x="147" y="580" />
              <mxPoint x="214" y="580" />
            </Array>
          </mxGeometry>
        </mxCell>
        <mxCell id="N7j_AR3H26S9qxAbAxP2-16" value="" style="edgeStyle=orthogonalEdgeStyle;rounded=0;orthogonalLoop=1;jettySize=auto;html=1;entryX=0.5;entryY=1;entryDx=0;entryDy=0;entryPerimeter=0;startArrow=classic;startFill=1;exitX=0.5;exitY=0;exitDx=0;exitDy=0;exitPerimeter=0;" parent="8x82bi2lTyPNWPK4kSOo-1" source="8x82bi2lTyPNWPK4kSOo-33" target="8x82bi2lTyPNWPK4kSOo-21" edge="1">
          <mxGeometry relative="1" as="geometry">
            <Array as="points">
              <mxPoint x="235" y="580" />
              <mxPoint x="214" y="580" />
            </Array>
            <mxPoint x="249" y="620" as="sourcePoint" />
          </mxGeometry>
        </mxCell>
        <mxCell id="8x82bi2lTyPNWPK4kSOo-4" value="GitHub Actions &lt;br&gt;IAM Role" style="sketch=0;outlineConnect=0;fontColor=#000000;gradientColor=none;fillColor=#DD344C;strokeColor=none;dashed=0;verticalLabelPosition=bottom;verticalAlign=top;align=center;html=1;fontSize=12;fontStyle=0;aspect=fixed;pointerEvents=1;shape=mxgraph.aws4.role;" parent="8x82bi2lTyPNWPK4kSOo-1" vertex="1">
          <mxGeometry x="835" y="84.66" width="78" height="44" as="geometry" />
        </mxCell>
        <mxCell id="8x82bi2lTyPNWPK4kSOo-7" value="&#xa;&#xa;&#xa;&#xa;&#xa;&#xa;&#xa;OpenID Connect" style="shape=image;aspect=fixed;image=data:image/png,iVBORw0KGgoAAAANSUhEUgAAAgAAAAIACAYAAAD0eNT6AAAABHNCSVQICAgIfAhkiAAAAAlwSFlzAAALEwAACxMBAJqcGAAAIABJREFUeJzt3Xe8XGWB//Hv85wzc0s6pPdKOkkISeghoYYiRSmCgqDo6u7K+mNZBRJjpKiA7Lrurn3FFRcFBVECLiX0Ih0CAdIDKaSHtJt7Z87z/P64CQZIu7l35pmZ83m/Xrxibu6d+ajAfOfMmTNGFcZPl91WPahvkssPM8b2M8b3kzO9nfWdrPyBkj3Qy9V62aykrJVs6GYAQPE5yUlqMHINRnar5NY6mbXWmdXO+iXGm8Xeu0VRJp5TvW3eYjNDLnRzSzKhA5pry/SBPU3sj5RxR8qZcU4aaa1pFboLAFA5nNxmec223j6vSE95b59qNXXestBdzVF2A8BP71O9JRNNss6c7KymWGlQ6CYAQPo4p7nW6n4n3V/bxjxqL59fH7qpKcpiAPifjM1sWbnuJGPMefL+DGNtm9BNAADs4OU2yuuP3pvfterS4UHzpRdzoZv2pqQHwLZv9x+UWPMFI31OUufQPQAA7IP3vHSr9ebnNdPmLwgdszslNwC8l9l2Xf9J3pgrJJ0SugcAgP3mNNMY3Vw9dcFjxsiHztlZyQwA72W2XjvgDGPdNyU7JnQPAAAt6EUvM6P2mvn3lsoQKIkBsPm6ASdZ6XpJY0O3AABQME7PGeOuqZm26KHQKUEHwLbr+wxxSXyLrKaE7AAAoMjutdZdUX31ormhAoIMAD+9W+3WuPZb3rivWdk4RAMAACE553LGmJtrahuutVcsrSv2/Rd9ANRd239yYvxPreyAYt83AAClxknzrDGX1V4z/7Fi3m/RBoCf3qe6Loq/J6uvFus+AQAoF07+lto29upiXVCoKANg0/X9R0SJuV1WI4pxfwAAlKlXrbOfrv7mvDcLfUcF/yCcrdf2/7Tx5q88+AMAsFej8kqe3/LtgZ8q9B0V7AiAv0NR3dz+N0nma4W6DwAAKpWXbqw9aMHV5lwlhbj9ggwAd9PBrbbVbb5d1pxeiNsHACAVnO6uSbZ+xsxYsbWlb7rFB8Cm6/t1ibydKS7qAwBA8zk9l4/MaW2vmb+6JW+2RQfAlukDeyrjHzLS4Ja8XQAA0sw7N0dJ9oRWM95e3lK32WIDoO47ffomSTTLyvRrqdsEAACNnNwC6/1xtdMWL2mJ22uRAbBl+sCePuMe58EfAIDCcXILTC57TEscCWj2ANh0fb8u1tvHOOwPAEDhefk3E2MnNvecgGZdB8DddHCryNuZPPgDAFAcRmZo7N2f/fRutc25nf0eAP4ORdvqNt8uzvYHAKDIzIS6qPY2f4ei/b2F/R4AW+b2v5H3+QMAEIjVWVvnDrhhf398v84B2Hpt/0/LmP/d3zsFAAAtw8t9qtXURX9o6s81eQBsur7/COPNX63UrNceAABA8zm5zbFx46qvWfJWU36uSS8B+Ol9qqPE3M6DPwAApcHKtnZJdLv7wcCqpv1cE9Rl4u/yqX4AAJQYa0bXbXTXN+VH9vklgLpr+0/2xjzc9CoAAFAU3k6snTbv8X351n06AuCnd6tNjP9p86oAAEAhOe9+5qf3qd6X792nAbA1Uzvdyg5oXhYAACgka3XQ1jiaui/fu9eXALZd32dI3tvZVjZufhoAACgk51wuiu2wmqsXzN/T9+31CIBL4lt48AcAoDxYazM+727e2/ft8QjA5usGnGSlv7RcFgAAKAbj/XE10xbO2t2f7/YIgPcyVmrSWwoAAEBp8F7Xe7/7J/q7HQBbrx1whvigHwAAypM1h225tv+U3f7xrr7ovYyx7puFqwIAAIVmZabv7ijALgfAtuv6T5LsmMJmAQCAgrIaX3dDv6N2/Ue74I25orBFAACgKBJz5a6+/LHDAnU3DBjoneYVvggAABSDieyAmqvmLdz5ax87AuASfaF4SQAAoNBcknz+o1/70BEA/5OxmbrVG5ZK6ly0KgAAUFhOK2qSnr3NjMfyO770oSMAW1auO0k8+AMAUFmsum2Jlx7/4S/txFhzbnGLAABAMRijDz3Gf/ASgJ/ep3prZFcZa9sUPwsAABTYhuo2pqu9fH69tNMRgC2ZaBIP/gAAVKz29ZuTY3b85oMBYJ05OUwPAAAohsT/7bH+gwHgrHZ7vWAAAFD+jP72WG8kacv0gT1Nxr8bLgkAABSDU65766nvrLCSZGJ/ZOggAABQeEbREdKOlwCMYwAAAJACRuZIaccAcGZc0BoAAFAUzpvxkmT9dFknjQwdBAAACs8YN9J7GVP3nUH9feIWhA4CAABF4pO+Nsnlh4XuAAAAxeOMHWaNsf1ChwAAgOIxsv2sMZ4BAABAqrh+Vs70Dp0BAACKx0h9rLO+U+gQAABQPN77jtbKHxg6BAAAFI8xtqOVLAMAAIA0cepovVxt6A4AAFBEVjXWy2ZDdwAAgOJxTlVWEgMAAIA0saqydscHAgEAgFSwkuXBHwCAFGIAAACQQgwAAABSiAEAAEAKMQAAAEghBgAAACnEAAAAIIUYAAAApBADAEB5yNSELgAqCgMAQMmLBhyj6stmhs4AKkocOgAAdsfUtFfmxGmKRpwh+SR0DlBRGAAASlI0/BPKnDhVpvaA0ClARWIAACgppm03ZaZ8W9HASaFTgIrGAABQIoziQz+jzKR/lrKtQscAFY8BACA403GAsqd+R7bnIaFTgNRgAAAIx8aKj/g7ZY76ihRlQ9cAqcIAABCE7T5KmVNvkO08OHQKkEoMAADFlalR5tj/p3jcxZLhUiRAKAwAAEVj+x+l7CnXybTrGToFSD0GAICCMzXtlTnhGkUjzwqdAmA7BgCAgoqGnarMid+UaXVg6BQAO2EAACgI06aLMlOuVTRocugUALvAAADQwozisRcoM+lKqap16BgAu8EAANBizIH9lT31etle40KnANgLBgCA5rOR4sO/qMzR/8gFfYAywQAA0Cy220hlTvuObOchoVMANAEDAMD+ydQoM/GfFI//nGSi0DUAmogBAKDJbN8jlD31epn2vUKnANhPDAAA+8xUt1Pm+KsUjfpU6BQAzcQAALBPoqEnK3PidJnWnUKnAGgBDAAAe2TadFbmpBmKBp8QOgVAC2IAANgNo3jMeYqP+7pMVZvQMQBaGAMAwMeYA/oqe+oNsr3Hh04BUCAMAAB/YyPFh13WeEGfuCp0DYACYgAAkCTZrsOVOfU7sl2HhU4BUAQMACDt4mplJl6ueMKlXNAHSBEGAJBits9hjRf06dAndAqAImMAAClkqtsqPu4bikefGzoFQCAMACBloiEnKXPSdJnWnUOnAAiIAQCkhGndWZmTpisaclLoFAAlgAEApEA8+lzFx31Dprpt6BQAJYIBAFQw06F34wV9+hwWOgVAiWEAAJXIRIonXKrMxMuluDp0DYASxAAAKoztMlSZ074r23V46BQAJYwBAFSKuEqZo/9R8WGXSZYL+gDYMwYAUAFs7/HKnnqDzAF9Q6cAKBMMAKCMmao2io/7uuIx50kyoXMAlBEGAFCmogHHKHPqd2XacEEfAE1nQwcA2D/RIRfw4A9gvzEAAABIIQYAAAApxAAAACCFGAAAAKQQAwAAgBRiAAAAkEIMAAAAUogBAABACjEAAABIIQYAAAApxAAAACCFGAAAAKQQAwAAgBRiAAAAkEIMAAAAUogBAABACjEAAABIIQYAAAApxAAAACCFGAAAAKQQAwAAgBRiAAAAkEIMAAAAUogBAABACjEAAABIIQYAAAApxAAAACCFGAAAAKQQAwAAgBRiAAAAkEIMAAAAUogBAABACjEAAABIIQYAAAApxAAAACCFGAAAAKQQAwAAgBRiAAAAkEIMAAAAUogBAABACjEAAABIIQYAAAApxAAAACCFGAAAAKQQAwAAgBRiAAAAkEIMAAAAUogBAABACjEAAABIIQYAAAApxAAAACCFGAAAAKQQAwAAgBRiAAAAkEIMAAAAUogBAABACjEAAABIIQYAAAApxAAAACCFGAAAAKQQAwAAgBSKQwcAaCojU9tBJlMTOgRAGWMAACXEtOoo076HTNvuMm26NP6+VUepdSeZVp1kWneUqT1QslHoVABljgEAFFO2leyB/WU69JFp16Pxwb5dT9n2PWTa9ZDi6tCFpctYZSZ+TW7Du/Lrl8ivf0d+0ypJPnQZUJbM1usG8E8P0KKMTNtuMh37Nz7YHzjgg19Nm86h4ypLrk5u/RL5dYvl1y6SW7tAfs0CubULpIatoeuAksYRAKA54mrZzoNluwyV6TJUtusw2U6DpWxt6LJ0yNTIdh4idR7ysT/yG5fLrZorv3qu3Kq35Ve9JbdmgeTyAUKB0sMRAGBfZWtlu4+S7Tqi8YG+yzCZA/tKhtfjy0aSk1szX37lHLn33pBb8YbcyjlSri50GVB0DABgl4xMxwGyPcbI9hjd+FenQZLhnbMVxzu5NQvkl78qt2K23LJX5Fa9JbkkdBlQUAwAQJKibOODfJ8JinqNlek+SqaqTegqhJKrk1vxutyyl+SWviT37ovydRtCVwEtigGAdIoyst1Hy/Y9TFGfCbI9RnMGPvbAy69dqOSdF+TeeU7unefkN64IHQU0CwMAqWG7DJUdMFFRvyNkex7CAz6axW9YKrfkGSWLn5Vb/Iz85lWhk4AmYQCgYpnqtrL9jlI0cKJs/6NlWvMWPBSOX7NAyaKn5BY9qWTJs7wNESWPAYCKYrsMlR04qfFBv8doztBHGC4vt/QlJfMfk1vwWONJhUCJYQCgvBkr22OMoiEnKhp8okz7XqGLgI/xm1Yqmf+o3PxZShY9zdsOURIYACg/NlbU93DZwScqOuh4mdadQhcB+y5fr2TxM3JzH1Iy9yH5LWtCFyGlGAAoD8bK9j1c8fDTZQefKFPdNnQR0HzeyS1/VclbDyh56y/yG94NXYQUYQCgpNnuoxQNP13RsFM4iQ8Vz618U8lbf1Hy5v3yaxeGzkk5o0r/oCkGAEqOOaCv4pFnKhp+ukyHPqFzgCDcqreUzLlPyZyZ8uuXhM5JFdOhj7Kn3qD62y4MnVJQfBgQSkOmRtHQKYpHnyPba1zoGiA423mIbOchyhz7/+RWzFbyxp+UvDGT6w0UkrGKx12szKQrpCgTuqbgGAAIynY/WNHocxUPO02qah06ByhJtttI2W4jlTnuKrklzyo/+49K3voL1xpoQaZDH2VP/55sr0Mbv+Ar/7MgeAkARWeq2ig6+GxFo8+V7Tw4dA5QnnJ1St5+QPnX7pJb9LQq/fXqwjGKx1+szLFXSJmav33ZJ6q7obL//cQRABSN7TRI0aGfVTzyrA//gwag6TI1ikacoWjEGfLvL1Py2l3Kv/YH+Q1LQ5eVDdOh9/Zn/el82ZEjACgsEyk66DjF4y6S7XNY6Bqgwnm5xc8o//LvlLz9gJTkQgeVqN08698ZRwCA/WOq2ykac77iQy+Uads9dA6QEka27xHK9j1Cvm5D41GBl26XX7codFjJSPuz/p0xANCiTNuuisd/XvGY86RsbegcILVMTXvFEy5VPOESucXPKv/S/zYeFXCVf3LbrhnF4y5SZtI/8xLkdgwAtAjTcaAyh39R0YhPSJa/rYDSYWT7Hq5s38PlN61S/uXfKnn5dvnNq0OHFY3p0FvZ074n25tn/TvjHAA0i+05VvERX1I0aJIar5wFoOS5vJK3/qL8c7fKLXsldE0BGcXjPqvMpCub/qyfcwCAXbO9xikz8XJO7APKkY0VDTtN0bDT5Ja9qvzztyp5876KennAtO/V+Fp/7/GhU0oWRwDQJLbXococc7ls38NDpwBoQX7je8o//yslL/9Wvn5T6JxmaMaz/p2l4AgAAwD7xPYc2/iMv+8RoVMAFFLDFuVfuUP5v/5SfuPy0DVN0qLP+lMwAHgJAHtkuwxVZvLXZfsfFToFQDFkWykef4niQy9SMude5Z/5qdyqt0NX7YVRfOhnlJn8L5zh3wQMAOySaddDmWP/X+NZ/ZzcB6SPjT640mAy/1Hln/6x3LsvhK76GNO+l7KnfVe2z4TQKWWHAYAPMdXtFB/1FcWHflaKsqFzAJSAaOCxigYeK/fO88o99Z9yC58MnSSe9TcfAwCNoqzicRcrPvLvZKrbha4BUIJs73Gq6n2r3PLXlH/yP5TMmxWkw7Tv2fi+fp71NwsDAIoGTVbmhKkyHXqHTgFQBmz3g5U996dyK15X/skfKpn7cJHu2Sg+9EJlJn+dZ/0tgAGQYuaAvsqcOE3RgImhUwCUIdtthLLn/ETuvTeUf/wHBT0i0Pis/7tce6QFMQDSKFOjzNH/oHj8pVKUCV0DoMzZrsMbjwgse1W5x/+1hc8RMIrHXqDMcd/gWX8LYwCkTDTsVGWOv1qmTZfQKQAqjO0xSlWfvrXxZMFHbpJb+lKzbs+066ns6TzrLxQGQEqYtt2UmfJtRQMnhU4BUOFs73GquvgOJfMfUf6R78utequJt7D9Wf/kr/OpogXEAKh0xio+9LPKHHsF/yABKKpo4CRFAyYqef1Pyj32r/LvL9vrz5h2PZU97TtcbrwIGAAVzHY6SJlTvyPbY1ToFABpZayikWcqGnaK8i/cpvxT/yVft2FX38iz/iJjAFQiGzee5HfE30mW/4vLWr5eftNK+c0r5Tev3v6fG3+ND/2sbI/RoQuBfRNlFU+4VNGoTyr/5H8q/8KvpSQniWf9ofDoUGFsp4OU+cTNsl2HhU7BPvLbNsqvXSC//h359e/IrX9HfsO78hvekd+0WtKuP68rGjqluKFACzDV7ZQ5/mrFh35WuVk3ytR0aDzDn2f9RccAqBTGKj7sC8pM/Ccu4VuqGrbIrXpLbvU8+TXzG39dPU9+86rQZUDRmfa9lD37h6EzUo0BUAFM+17KfuIm2V6Hhk7BDrk6uZVz5JbPllsxW+691+XXLpK8C11WvrxTw5+/Ltt5sGznITJdhsq0OjB0FVC2GABlLhp9jrInTOPwWWB+00q5d1/421+r5ko+CZ1VYbyS2Xdr5/9VTetOsl2Hy3QdLtt1hGz3g7nGBbCPGADlKttK2VOuUzT89NAlqeQ3rZRb9KSSxc/IvfuC/IaloZNSyW9erWT+o9L8Rz/4mmndWbb7wbLdR8n2HCPb7WAGMrALDIAyZLsOU/bsH8p06BM6JT1ydUqW/FVu0VNKFj4hv2Z+6CLsht+8Ssnch5TMfajxCyaS7XyQbK+xsr3GyfYaJ9Omc9hIoAQwAMpMPO6ixjNmOdGv4BofSB6Wm/uQksXPSElD6CTsD5/IrXxTbuWb0gu3SZJMh96yvSco6jNBts8EmbbdAkcCxccAKBOmqo0yp31X0ZCTQqdUNL92oZK3H1Dy9oNyy1/T7t6Ch/Lm17+jZP07Sl69U5JkOvRR1Pdw2X5HyvY9XKamfeBCoPAYAGXAdBygqnN+LHNAv9ApFclvfE/JnHuVvPEnuffmhM5BAH79EuXXL5Fe/q1krGzX4bL9jlQ04BjZnodwQS1UJP6uLnHRQccre8b3pWyr0CkVxW/b2Pig//qf5d59QTzTxwe8a3zr5orZyj/9Y6mqtaK+R8gOPFbRgGM5fwAVgwFQsowyEy9XfNTfSzKhYyqEl1vyV+VfuVPJW/8n5beFDkI5qN+8/WWhB5RT40m4dtBxigYdJ9ttROg6YL8xAEpRVWtlz7hF0aDJoUsqgt+8Wsmrdyr/yp3yG94NnYMy596bI/feHOWf+KFM266KDjpe0UEnNH5mvY1C5wH7jAFQYky7Hsqe93PZToNCp5Q9t/xV5Z//HyVv3vfBh44ALclvfK/xE+5euE2mup3soMmKhk5R1P8o3qmDkscAKCG22whlz/2ZTOtOoVPKl8srefM+5Z//ldyyV0PXIEX8tvcbr1Q4+24p26rxyMDQKYoGHMMYQEliAJSIaNBkZc/6gZSpCZ1SnnJ1yr9yh/LP/kJ+4/LQNUi7hi1KXr9Hyev3NJ5EOPhERcNPV9T3CF4mQMlgAJSAeNxFypwwVTI2dErZ8ds2KnnxNuWfu1V+67rQOcDH1W9W8tpdSl67S6bVgYqGnqJoxBmyPUaHLkPKMQACyxx/leIJnw+dUXZ8/Sbln/2F8s/fKtVvDp0D7BO/Za3yL/xa+Rd+LdOhj+KRZyoaeZZM+56h05BCDIBQTKTsqdcpGnVO6JLykqtT/vlfKf/Mz+S3vR+6Bthvfv0S5R7/gXKP/7ts70MVH3y2oqGn8sFFKBoGQAhRRtkz/lXR0JNDl5QPl1f+xd8o/9SP5LesCV0DtCAv987zanjneen/vq1o6CmKR58j2+vQ0GGocAyAYsvUKPup/1LU/+jQJWUjeftB5WZ9T37d4tApQGHl6pS89gclr/1B5oB+isecq+jgT8rUHhC6DBWIAVBEpqqNsuf/XLbn2NApZcGtfFO5B6+XW/Js6BSg6Py6Rco9/D3lHvm+osEnKD7kAtm+h4krg6KlMACKpaq1shfcKtt9VOiSkue3va/8rJuUf+UOybvQOUBYLq/kzfuVvHl/41GBQy5QNOpsmep2octQ5hgAxZBtpapP/5IH/32QvH6Pcg/dIL9lbegUoOT4dYuUe+h65R79vqLhpys+9LOyXYeFzkKZYgAUWqZGVef/QrbHmNAlJc2vXaiG+7/J4X5gX+S3KXn1TiWv3inb8xDF4y5SNGQKFxlCkzAACmnHgz9n8+6ed8r/9RfKPfqvUtIQugYoO27pS2pY+pJMm+8oHnuhojGflqntEDoLZYABUChRVlXn/kS29/jQJSXLr1ushj9dKbfs5dApQNnzm1Yq9+gtyj35X4pHnqF4/KUyHQeEzkIJYwAUgrHKnnmLbN8jQpeUKK/88/+j3KybpPy20DFAZclvU/7l3yn/8h2KBk5UfNgXGj+qGPgIBkABZE6armgIF/nZFb91nXJ/+mclCx4PnQJUOC+3Zr58npfWsGsMgBYWH/X3isdeGDqjJLnFT6vhnn+W37wqdApQ2Wys+LAvKHP0P0hxdegalCgGQAuKR5+rzMSvhc4oPT5R7rEfKP/0j3lfP1BgtscYZU69XrbTQaFTUOIYAC0kGjBRmVOuDZ1RcnzdBjXcfbncoqdCpwAVzVS3VTzpSsWHnC+uFoh9wQBoAebAAcqc9W+S4T24O3PvzVHD778i//7S0ClARYuGnarMCVNlWncKnYIywgBoJlPdTlXn/VSmqk3olJKSvH6PGmZew1n+QAGZdj2VmTJD0YCJoVNQhhgAzWEjZc/+d5kOfUKXlJTc4z9Q/okfhs4AKpeNFE/YfpJfpiZ0DcoUA6AZMsdfI9vvyNAZpSPJqWHmVUpm/zF0CVCxbI/RypxynWznIaFTUOYYAPspOvhsxeMuCp1RMvy299Vw55fl3nkudApQkUxVG8WTr1Q85nzJ2NA5qAAMgP1gOg5U9uQZoTNKht+8Wg23f05u1duhU4CKFA09RZkTp8q07hw6BRWEAdBUmRpVffI/eN1tO//+MtX/5iL59UtCpwAVx7TrqczJ31I08NjQKahADIAmyk75tkzHgaEzSoJfu1D1/3ux/MYVoVOAymIjxeMvVeaYr/JkAwXDAGiCaNSnFI08K3RGSfBrF6r+1xfIb1kTOgWoKLbHKGWmXCfbZWjoFFQ4BsA+Mh36KHvS9NAZJcGvX6L633yGB3+gJVW1VmbSlYoP+TQn+aEoGAD7wlhlP3ETh+Ik+feXqv62z8hv4gN9gJYSDZ2izAnTZNpwkh+KhwGwD+IJn5fteUjojOD85lWND/685g+0CNOux/aT/CaFTkEKMQD2wnQcqMyxfMKf6jer4befl9/Adf2BZrOR4vGXKHPM5RxZRDAMgD2xkbKfuFmKsqFLwkpyqv/9l+VWvhm6BCh7tvuoxiv5cZIfAmMA7EE84fOy3UaEzgjMq+HPX5db/EzoEKC8VbVW5tgrFI+9kJP8UBIYALth2nZX5uh/DJ0RXP7J/1Tyxp9CZwBlLRpysjInTpNp0yV0CvABBsBuZE6clvrX5pK5Dyn32A9CZwBly7Tt3niS36DJoVOAj2EA7EI08FhFg08InRGUWz1PDfdcIcmHTgHKkjmgnzJHfllKGpS89ZfQOWgq70IXFBwD4KPiKmXSfsGf+s1quPPvpIYtoUuAsuXXLVLDn/8ldAawW5yJ8hHxhM/LtO8VOiOohvum8uE+AFDhGAA7MbUdlDn8i6EzgkpeuVPJnHtDZwAACowBsJP4yK9IVa1DZwTj18xXwwPfDp0BACgCBsB2pl1PxWM/EzojHJc0nvSXqwtdAgAoAgbAdpljvyZFmdAZweSf+Ynce2+EzgAAFAkDQI3X+4+Gnx46Ixi36m3lnvhh6AwAQBExACRljvhSei/N6Z1y935DSnKhSwAARZTSR72/Me16KBr+idAZweRful1uxezQGQCAIkv9AIgP+4Jko9AZQfit65V/9JbQGQCAAFI9AEztAYpHnxM6I5jcIzfKb3s/dAYAIIBUD4D40M9KcXXojCDce3OUvPL70BkAgEDSOwBspGjMeaErgsk/erP4oB8ASK/UDoBo0HEyrTuHzgjCLfmrkgWPh84AAASU3gFwyKdDJwSTe+Sm0AkAgMBSOQBM+56K+h8VOiMIt+gpuWWvhM4AAASWygEQjz5PkgmdEUTu6Z+ETgAAlIBUDoBoRDov/ONWzJZb/HToDABACUjdALA9Rsm06xE6I4j8Mz8LnQAAKBGpGwDR0FNDJwThN69W8vb/hc4AAJSIlA0Ao2joyaEjgkhe/b3kktAZAIASkaoBYHuMkmnbPXRG8Xmn/Mu/C10BACghqRoA0UHHh04Iwi1+Wv79paEzAAAlJFUDwPY7MnRCEPk37g2dAAAoMakZAKamvWzX4aEzii/Jyb39QOgKAECJSc0AsH0Pk0xq/ut+IFn4hPy2jaEzAAAlJjWPiLZvOg//J2/x1j8AwMelZgBEfQ8LnRCEW/hE6AQAQAlKxQAw1W1lDugbOqPo3Kq35DevCp2e2T8oAAAX5UlEQVQBAChB6RgAXYcrjR/+4xY8HjoBAFCiUjEAbLeRoROCcEv+GjoBAFCiGAAVzC1/NXQCAKBEpWMApPD9/37dYvm6DaEzAAAlqvIHQJSRad8zdEXRuWWvhE4AAJSwih8Apl3PVF4AyK16K3QCAKCEVfwjo+3QK3RCEH7twtAJAIASVvEDwLRP5wBwaxaETgAAlLDKHwAdeodOKL4kJ7+Bj/8FAOxe5Q+ANl1CJxSd37xS8knoDABACav4AaDqdqELis5vXh06AQBQ4ip+AJiqtqETis5v4vr/AIA9q/wBUJPCAbBlTegEAECJq/gBoBQeAVDD5tAFAIASV/EDwFS1Dp1QdD5XHzoBAFDiKn4ApPEqgMpvC10AAChxlf/o6F3oguLLcwQAALBnlT8A5EMHFJ+NQxcAAEpc5Q8An8IBEGdDFwAASlwKBkD6XgIwEQMAALBnFT8AfMPW0AnFl6kJXQAAKHGVPwDqNoROKDpTe0DoBABAiav4AaC69aELiq9Vx9AFAIASV/EDwG9N3wAwrTuFTgAAlLjKHwApPAKQxo9ABgA0TcUPAKXwo3FN7QEy1Sn8DAQAwD6r+AHg1i8JnRCEObB/6AQAQAmr+AHg1y0KnRCEOXBA6AQAQAmr/AGwNp0DwHYeHDoBAFDCKn8AbNsov3Vd6Iyisz1Gh04AAJSwih8AkuTXLgydUHS22wgpyoTOAACUqFQMALdiduiE4ouysl2Hha4AAJSodAyApS+HTgjC9j4sdAIAoESlYwAsS+cAiAYeGzoBAFCiUjEA/MYV8ptWhs4oOtvzEC4IBADYpVQMACmlLwPYSLbfUaErAAAlKD0DYMkzoROCiIaeEjoBAFCCUjMAknmPhE4IIjposkxVm9AZAIASk5oB4Dcul1v5ZuiM4ouyioZOCV0BACgxqRkAkuTmzQqdEER08FmhEwAAJSZVAyBJ6QCwvcbx2QAAgA9J1QBwy1+T37QqdEYQ0biLQycAAEpIqgaA5JW8fnfoiCDiEZ+QqWkfOgMAUCJSNgCk/Kt/CJ0QRlytaOyFoSsAACUidQPAr12Y2ksDxxMulapah84AAJSA1A0ASUpe/X3ohCBMdTvF4y8NnQEAKAGpHAD5OTOlXF3ojCDiCZfIVLcLnQEACCyVA0D1m1N7LoCpaqP4qK+EzgAABJbOASAp/9efSz4JnRFEPO5imQMHhM4AAASU2gHgNyxV8uZfQmeEYWNlT5oWugIAEFBqB4Ak5Z/5aeiEYGy/oxQNOSl0BgAgkFQPAPfeG3KLnw6dEUzmpOmcEAgAKZXqASBJucf/PXRCMKZ1Z2VO+mboDABAAKkfAO7dF5TMfTh0RjDRiDMUDT4hdAYAoMhSPwAkKTfrxtS+I0CSMlOuk2ndKXQGAKCIGACS/NoFyr9yZ+iMYEyrA5U9898kE4VOAQAUCQNgu/zjP0jt1QElyfaZoMyxXwudAQAoEgbAdn7zauWe+lHojKDiI76kaOCk0BkAgCJgAOwk/8xP5VbPC50RkFHmzFtkOg4MHQIAKDAGwM5cXrmZV0vehS4JxlS1UdX5P5dpdWDoFABAATEAPsIte1n5l24PnRGUaddT2XN+KsXVoVMAAAXCANiF3CM3yW9aGTojKNtjlLJn3sI7AwCgQjEAdqV+s3L382E50eATlT39e5JM6BQAQAtjAOxGMm+W8i/+JnRGcNHIM5U55drQGQCAFsYA2IPcQzfIrXordEZw8ZjzlTlhaugMAEALYgDsSb5eDXdfnuoLBO0Qj/+cMifPEC8HAEBlYADshV+zQLkHrwudURLisRcqe8bNkuXEQAAodwyAfZB/+XdK5swMnVESohFnKPupH0lxVegUAEAzMAD2UcO935Bb+WbojJIQDZqsqgt+JVPbIXQKAGA/MQD2Va5ODXd8SX7LmtAlJcH2OlRVl9wl03FA6BQAwH5gADSB37hcDXd+WUoaQqeUBNO+l6o+93vZfkeGTgEANBEDoIncspfVcB9viduh8bMD/lvx+M+FTgEANAEDYD8kr92l/LM/C51ROmykzAlTlT37P6Sq1qFrAAD7gAGwn3IP36hk9t2hM0pKNPRkVV/6R9nOQ0KnAAD2ggGw37wa7v2GkrkPhQ4pKeaAvqq65PeKx5wfOgUAsAcMgOZwiRru+qrckmdDl5SWuFqZU65T9ryfybTuFLoGALALDIDmShpUf8eX5FbMDl1ScqKBk1R12X2KhpwUOgUA8BEMgJbQsEUNt18iv2Z+6JKSY2o7KPvJ/1T2EzfL1LQPnQMA2I4B0EJ83QbV//oCrha4G9HIM1X1dw8qOvjs0CkAADEAWpTfuk4Nt31GbvmroVNKkqntoOzpN6rqM7fJHNAvdA4ApBoDoIX5be+r/jcXyb37fOiUkmX7HKbqL85UZuI/SZma0DkAkEoMgEJo2KL62y+VW/RU6JLSFWUVH/UPqv7yw9tfFjChiwAgVRgAhZKrU/3vLlMy9+HQJSXNtOnc+LLApXfL9h4XOgcAUoMBUEhJgxp+/xXlX/h16JKSZ7uNUNVnb1f2nB/Ldh4cOgcAKh4DoNB8otz/zVDuwesl70LXlLzooONVddm9yp7973zUMAAUEAOgSPLP/VINf/h7KVcXOqUMGEVDT1H1F+9X9ozvy3ToEzoIACoOA6CIkrcfVP1tF8pvWRM6pTwYq2jEGar+8gPKnv3vsl2Hhy4CgIrBACgyt/w11f/yk1wwqClMpGjoKar6/D2quvDXivofHboIAMoeAyAA//4y1d96Dh8nvB9s38OV/fQvVfWFPysaeZYUZUMnAUBZYgCEkt+mhj9dqdxfpktJLnRN2bFdhir7iZtU/dWnlJl8pUy7nqGTAKCsMAACy7/4G9X/+nz5jStCp5QlU9tB8eFfUvXfz1L23J8qGjBRXFQIAPaOAVAC3LJXVf+LM+QWPx06pXwZq2jQZGXP/4Wq//ExZSZ+jXcPAMAeMABKhN+6TvX/e4lyj/9AcknonLJm2nZXfNTfq/orD6vq4t8pHn2uVNU6dBYAlBQGQCnxifJP/FD1/3Ou/PoloWsqgu05VplTb1DNPz2r7Fn/pmjISVJcFToLAIKLQwfg49yyV7Xt56cre8I0RaPPCZ1TGeJqRcNOUzTsNKlhq5L5s5TMuU/JgsekfH3oOgAoOgZAqWrYqoaZVyma/4gyp94gU9M+dFHlyNbuNAa2KJk3S8nch+UWPi6/bWPoOgAoCgZAiUvefkBu2SvKnP49LoBTCNlWioafrmj46ZJL5Ja+qGTuw0rmPyK/dmHoOgAoGAZAGfCbV6nh9ksUHfxJZY6/iqMBhWIj2d7jZXuPV+b4q+TXLVYy/xG5RU8reeevUsPW0IUA0GIYAGUkee0PcgseU+akbyoaekronIpnDuirePwl0vhLJJeXW/5q4xhY/LTc0pcllw+dCAD7jQFQZvyWNWq466uKBv1RmZO/LdO2a+ikdLCxbM+xsj3HKj76H6VcnZJ3npd79wW5pS/KLX+NT3oEUFYYAGUqmTdLyTvPKTPpSsVjLxBXvyuyTI2iAccoGnBM4+9dXu69OY1jYOmLcu++JL95VdhGANgDBkA5q9+s3F+mK3n9HmVO+pZs12Ghi9LLxrLdD5btfnDjSwaS/Mblcitel1vxuvx723/dui5wKAA0YgBUALf0JdX/95mKR5+r+NgrZGo7hE6CGq9IGLXtrmjwiR98zW9csX0UzJZf/bbcqrnyG5ZK8uFCAaQSA6BSeKf8y79V8uZ9io/+quJDPyvZKHQVPsK07aaobTdFg0/42xdzdXKr58mvnrvTr2/Lb+IlBACFwwCoMH7bRuUevE75l3+r7IlTZfsdFToJe5OpaXzpoPvB+tBka9git26J/Pol8usWy61bLL9ucePvt6wJVQugQpit1w3g2GMFiw46vvHaAXwyXmWp39x4hCdTE7qkOJIG5Z74ofJP/Sh0CVAxGABpYCPFo89TfPQ/yLTuHLoGaBL37vNqmHkNV2YEWhgDIE0yNYrHXaz48C/KVLcNXQPsWcMW5WbdqPyL/ytOkgRaHgMghUx1W8WHf1HxuIvTcwgZZSWZN0u5v3xTfuN7oVOAisUASDHTurPio/9B8ehzJcv5oAjPb1mr3APfVjJnZugUoOIxACDTrqfiI76oeNSnpCgbOgcplcy+W7kHr5ev2xA6BUgFBgA+YNp0VnzYZYrHnM9LAyga//5SNdw3VW7hk6FTgFRhAOBjTO0BiidcqnjsZ6Sq1qFzUKm8U/75Xyn36C18kBIQAAMAu2Wq2yoad7HicRfL1LQPnYMK4lbPVW7mVXLLXg2dAqQWAwB7l61VPOpTisd9TqZD79A1KGdJTrkn/1P5p38suXzoGiDVGADYd8YqGjRJ8fhLZftMCF2DMuOWvqSGmVfJr1kQOgWAGADYT7brMMXjL1E07DQpyoTOQSlr2KLcIzcp/8JvxAV9gNLBAECzmNadFI+9UNEhF8jUHhA6ByUmmf+ocvdPk9+4InQKgI9gAKBlxFWKhk5RfMinZXuODV2DwPzW9co9cK2SN/4UOgXAbjAA0OJsp0GKxpyvaOSZMtXtQuegyJLX71Huwevkt64PnQJgDxgAKJy4evtRgfM5KpACfuNy5e6bqmTB46FTAOwDBgCK4m9HBc7ikwgrjXfKv/Br5R79vtSwNXQNgH3EAEBxxVWKBk1WNPIsRQOO4UOIypxfM18N914lt+zl0CkAmogBgGBM7QGKhp+maMSZst0PDp2Dpkhyyj/9I+We+pGU5ELXANgPDACUBHPgAMUjz1Q08gyZtt1D52AP3LJXGi/ju3pe6BQAzcAAQIkxsr3HKR55luzgE/gMglKSq1PukZuVf+HXknehawA0EwMApcvGivoeLjt0iqLBJzIGAkoWPqHcfVPl318WOgVAC2EAoDzYSLbP4YqGntw4BrjqYFH4ug2NF/R5/Z7QKQBaGAMA5cdEsn3GK9pxZKBVx9BFFSl548/KPXCt/NZ1oVMAFAADAOXNWNleYxUNOk7RoMkyB/YPXVT2/MYVyt3/TSXzHwmdAqCAGACoKOaAvo3XGRg0WbbXOMlGoZPKiFf+hd8o98hNUsOW0DEACowBgIplqtvK9j9G0aBJsgMmchLhHvi1C9Rw79VyS18MnQKgSBgASAcTyfY8RNFBk2X7HSXbZYgkE7oqPJdX/ukfK/fkf0lJQ+gaAEXEAEAqmVYHyvY9UlH/I2X7HSXTpkvopKJzy19VbubVcqveDp0CIAAGACDJdByoqP9Rsv2OVNTnMClTEzqpcHJ1yj12i/LP/YoL+gApxgAAPsrGsj3HKOp/tGzfI2W7jaiYkwndoifVcN9U+Q1LQ6cACIwBAOxNpka251hFvcfJ9h4v22OUFGVDVzWJr9ug3EM3KHntrtApAEoEAwBoqigr22OUbO/xjaOg59iSfskgmTNTuQe+Lb9lbegUACWEAQA0l41ku42Q7TVetvc42Z6HlMRbDv2mlcrdP03JvFmhUwCUIAYAUACmQx/ZHqNle4xp/LXLEMnGRbp3r/xLtys360apfnOR7hNAuWEAAMUQV8l2HbF9FDT+Zdp2a/G78WsXqmHmNXLvPt/itw2gsjAAgEBMm86NRwi6j5LtNkKmy7D9f+nAJco/81PlnvghF/QBsE8YAEAJMe16ynYdJtt1uMyOX1t33uPPuBWzlbv3KrlVbxWpEkAlYAAAJc606rh9EAzfPg5GyLTvuf2CPv+m/HO3Sj4JnQmgzDAAgDJkqttKcZX85tWhUwCUqWKdlgygBfltG0MnAChzNnQAAAAoPgYAAAApxAAAACCFGAAAAKQQAwAAgBRiAAAAkEIMAAAAUogBAABAClknudARAACgeJzkrCQ+OgwAgDRxqrdGjgEAAECKWKt6a2S3hg4BAADF5Ldaya0NnQEAAIrJrLVOhgEAAECKeO/WWOsMHygOAECKeJnV1lm/JHQIAAAoHiOzxBpvFocOAQAAxeQWWe/dotAZAACgeLwxi22UieeEDgEAAMVjY71hq7fNW+zkNoeOAQAAReD0fs3XF75rzQw5ec0O3QMAAArPGb1ujLyVJOvt86GDAABA4Vnjn5N2fBxwpKeC1gAAgKLwTk9K2weA95YBAABACvgkeVraPgBaTZ23zDnNDZsEAAAKyTs3p/WMJe9JO14CkGSt7g+XBAAACs6YDx7rPxgATgwAAAAq2c5P9j8YALVtzKNebmOYJAAAUFBO66sbqp/Y8du/vQRw+fx6ef0xTBUAACgkb3S3mTGnYcfv7Yf+0JvfFT8JAAAUmtWHH+M/NABadenwoJxWFjcJAAAUll9ene8xa+evfGgAmC+9mPNWvyxuFAAAKCTv9Usz47H8zl+zH/0m683Pi5cEAAAKyTl5q/gXH/36xwZAzbT5C+Q0szhZAACgkKzcn2qmzV308a/vgjG6ufBJAACg4IzZ5WO62dUXvZepu37A85LGFjQKAAAUjvPP1kxbeIQx8h/9o90dAfBeZkbhywAAQKE4a761qwd/aTdHAKTtRwGuHfCsrMYXLg0AABSC83qq1dQFR+9uAOzyCIDUeBTAGHdN4dIAAEChWGuu2d2Dv7SHASBJNdMWPSTp3havAgAAhXRX7TXzH9vTN+xxAEiSte4K51yu5ZoAAEChOLkGE9kr9/Z9ex0A1Vcvmmt28xYCAABQWozsd2uumrdwb9+31wEgSTW1Ddc6aV7zswAAQKF4p7dq2pgb9uV792kA2CuW1lljLmteFgAAKBTn5I3xl9nL59fvy/fv0wCQpNpr5j/m5G/Z/zQAAFAoxuqm2mkLn9zX79/nASBJtW3s1XJ6relZAACggF6szVVNa8oPNGkA2Mvn11vZ853zW5rWBQAACsHLbbTWXWBmzGloys81aQBIUvU3571prb2kqT8HAAAKwV5UffWiuU3+qf25q9qp8+/00o3787MAAKBlePkbWk1dcM/+/Ox+DQBJqj1owdVyunt/fx4AADSHv7M2t7BJr/vvbL8HgDlXSU2y9TOSnt/f2wAAAE3nvHumuqbhYjNDbn9vY78HgCSZGSu25o051cu/2ZzbAQAA+8jp9SSqOt1esbSuOTez248Dboot0wd393HDE9bY/i1xewAA4OOcd/OVd0e3nrHkvebeVosMAEnaem3fPs6Yh63sgJa6TQAA0Mh5N99mzHG131j4TkvcXrNeAthZ7bTFS0wuewwvBwAA0MKcXlfeHd1SD/5SCw4ASWo14+3libET5fRcS94uAABp5bx7Jhdnjm2Jw/47a7GXAHbmp3errYtqb5PVWYW4fQAA0sHfWV3TcHFzT/jblYIMAEnydyjaOnfADUb6l0LdBwAAlcrL31CbWzitOW/125OCDYAdtlzX75NeutXKti70fQEAUO683EbJXrS/V/jbVwUfAJK07fo+Q5yPfytpVDHuDwCAMvWite6C/bm2f1O16EmAu1N9zZK3qtuYCd777xfj/gAAKCfOyXvpxppc1RHFePCXinQEYGdbrx10jPPuZ9bqoGLfNwAApcY7vWWMv6x22sIni3m/RR8AkuSn96neGkdTvff/Yq3NhGgAACAkJ9dgZL9b08bcYC+fX1/s+w8yAHaou2HAQJ93N8vaM0J2AABQZHeZyF5Zc9W8haECgg6AHequ7T/Ze10vaw4L3QIAQKE4r6esNdfUXjP/sdAtJTEAJMl7mS3X9p9iZabLanzoHgAAWozzzzprvtXqmgUPGCMfOkcqoQGwg/cydTf0O0qJuVLWnB66BwCA/eGcvJX7k4y5uWbqwqdK5YF/h5IbADur+86g/i5JPm+cuURW3UL3AACwd365l/lv66P/rpk2d1Homt0p6QGwg//J2MyWVRuOM9J5xussWbUL3QQAwE42eK+7rMzvqvM9ZpkZj+VDB+1NWQyAnbkfDKyq35wck3hzspGmGJmhoZsAAOnjnZsjY+63VvdXN1Q/YWbMaQjd1BRlNwA+avN1vbsZRUcYmSOdN+ONcSONbNvQXQCAyuHlNnpvZ1vjn/NOT/okebqlP5632Mp+AHyU9zJ11/Xt7YwdZmT7Sa6fkfp47zsaYzvKqaOsapxTlayqbJEuhwwAKC1OcnKqt1b1kt8qmbXeuzVeZrWRWSK5Rd6YxTbWGzVfX/huqZ3E11z/H2XjOJ4pbXRpAAAAAElFTkSuQmCC;fontColor=#000000;" parent="8x82bi2lTyPNWPK4kSOo-1" vertex="1">
          <mxGeometry x="622" y="65.66" width="82" height="82" as="geometry" />
        </mxCell>
        <mxCell id="8x82bi2lTyPNWPK4kSOo-11" value="&lt;font color=&quot;#009900&quot;&gt;IAM&lt;/font&gt;" style="points=[[0,0],[0.25,0],[0.5,0],[0.75,0],[1,0],[1,0.25],[1,0.5],[1,0.75],[1,1],[0.75,1],[0.5,1],[0.25,1],[0,1],[0,0.75],[0,0.5],[0,0.25]];outlineConnect=0;gradientColor=none;html=1;whiteSpace=wrap;fontSize=12;fontStyle=0;container=1;pointerEvents=0;collapsible=0;recursiveResize=0;shape=mxgraph.aws4.group;grIcon=mxgraph.aws4.group_account;strokeColor=#009900;fillColor=none;verticalAlign=top;align=left;spacingLeft=30;fontColor=#CD2264;dashed=0;" parent="8x82bi2lTyPNWPK4kSOo-1" vertex="1">
          <mxGeometry x="598" y="40" width="332" height="133.33" as="geometry" />
        </mxCell>
        <mxCell id="8x82bi2lTyPNWPK4kSOo-3" value="&lt;font color=&quot;#040608&quot;&gt;Global&lt;/font&gt;" style="sketch=0;outlineConnect=0;fontColor=#232F3E;gradientColor=none;fillColor=#DD344C;strokeColor=none;dashed=0;verticalLabelPosition=bottom;verticalAlign=top;align=center;html=1;fontSize=12;fontStyle=0;aspect=fixed;pointerEvents=1;shape=mxgraph.aws4.sts_alternate;" parent="8x82bi2lTyPNWPK4kSOo-11" vertex="1">
          <mxGeometry x="139" y="27.659999999999997" width="62" height="78" as="geometry" />
        </mxCell>
        <mxCell id="8x82bi2lTyPNWPK4kSOo-9" value="" style="edgeStyle=orthogonalEdgeStyle;rounded=0;orthogonalLoop=1;jettySize=auto;html=1;" parent="8x82bi2lTyPNWPK4kSOo-1" source="8x82bi2lTyPNWPK4kSOo-3" target="8x82bi2lTyPNWPK4kSOo-4" edge="1">
          <mxGeometry relative="1" as="geometry" />
        </mxCell>
        <mxCell id="8x82bi2lTyPNWPK4kSOo-8" value="" style="edgeStyle=orthogonalEdgeStyle;rounded=0;orthogonalLoop=1;jettySize=auto;html=1;" parent="8x82bi2lTyPNWPK4kSOo-1" source="8x82bi2lTyPNWPK4kSOo-7" target="8x82bi2lTyPNWPK4kSOo-3" edge="1">
          <mxGeometry relative="1" as="geometry" />
        </mxCell>
        <mxCell id="N7j_AR3H26S9qxAbAxP2-17" value="" style="edgeStyle=orthogonalEdgeStyle;rounded=0;orthogonalLoop=1;jettySize=auto;html=1;entryX=0.5;entryY=1;entryDx=0;entryDy=0;entryPerimeter=0;startArrow=classic;startFill=1;exitX=0.5;exitY=0;exitDx=0;exitDy=0;exitPerimeter=0;" parent="8x82bi2lTyPNWPK4kSOo-1" source="iWokAtj7TWv6FzPHpnEX-6" target="8x82bi2lTyPNWPK4kSOo-21" edge="1">
          <mxGeometry relative="1" as="geometry">
            <Array as="points">
              <mxPoint x="323" y="580" />
              <mxPoint x="214" y="580" />
            </Array>
            <mxPoint x="374" y="659.5185185185185" as="sourcePoint" />
          </mxGeometry>
        </mxCell>
        <mxCell id="cZ6HLcwP5YPC_tFZM-lf-6" value="Cognito" style="sketch=0;points=[[0,0,0],[0.25,0,0],[0.5,0,0],[0.75,0,0],[1,0,0],[0,1,0],[0.25,1,0],[0.5,1,0],[0.75,1,0],[1,1,0],[0,0.25,0],[0,0.5,0],[0,0.75,0],[1,0.25,0],[1,0.5,0],[1,0.75,0]];outlineConnect=0;fontColor=#232F3E;fillColor=#DD344C;strokeColor=#ffffff;dashed=0;verticalLabelPosition=bottom;verticalAlign=top;align=center;html=1;fontSize=12;fontStyle=0;aspect=fixed;shape=mxgraph.aws4.resourceIcon;resIcon=mxgraph.aws4.cognito;" parent="8x82bi2lTyPNWPK4kSOo-1" vertex="1">
          <mxGeometry x="740" y="270" width="78" height="78" as="geometry" />
        </mxCell>
        <mxCell id="N7j_AR3H26S9qxAbAxP2-19" value="" style="edgeStyle=orthogonalEdgeStyle;rounded=0;orthogonalLoop=1;jettySize=auto;html=1;entryX=0.5;entryY=1;entryDx=0;entryDy=0;entryPerimeter=0;startArrow=classic;startFill=1;" parent="8x82bi2lTyPNWPK4kSOo-1" source="6" target="8x82bi2lTyPNWPK4kSOo-21" edge="1">
          <mxGeometry relative="1" as="geometry">
            <mxPoint x="425" y="502" as="sourcePoint" />
            <mxPoint x="229" y="420" as="targetPoint" />
            <Array as="points">
              <mxPoint x="405" y="580" />
              <mxPoint x="214" y="580" />
            </Array>
          </mxGeometry>
        </mxCell>
        <mxCell id="8x82bi2lTyPNWPK4kSOo-18" value="&lt;font color=&quot;#000000&quot;&gt;ECR Repo(s)&lt;/font&gt;" style="sketch=0;points=[[0,0,0],[0.25,0,0],[0.5,0,0],[0.75,0,0],[1,0,0],[0,1,0],[0.25,1,0],[0.5,1,0],[0.75,1,0],[1,1,0],[0,0.25,0],[0,0.5,0],[0,0.75,0],[1,0.25,0],[1,0.5,0],[1,0.75,0]];outlineConnect=0;fontColor=#232F3E;fillColor=#ED7100;strokeColor=#ffffff;dashed=0;verticalLabelPosition=bottom;verticalAlign=top;align=center;html=1;fontSize=12;fontStyle=0;aspect=fixed;shape=mxgraph.aws4.resourceIcon;resIcon=mxgraph.aws4.ecr;" parent="8x82bi2lTyPNWPK4kSOo-1" vertex="1">
          <mxGeometry x="20" y="620" width="78" height="78" as="geometry" />
        </mxCell>
        <mxCell id="8x82bi2lTyPNWPK4kSOo-25" value="&lt;font color=&quot;#000000&quot;&gt;SSM&lt;/font&gt;" style="sketch=0;points=[[0,0,0],[0.25,0,0],[0.5,0,0],[0.75,0,0],[1,0,0],[0,1,0],[0.25,1,0],[0.5,1,0],[0.75,1,0],[1,1,0],[0,0.25,0],[0,0.5,0],[0,0.75,0],[1,0.25,0],[1,0.5,0],[1,0.75,0]];points=[[0,0,0],[0.25,0,0],[0.5,0,0],[0.75,0,0],[1,0,0],[0,1,0],[0.25,1,0],[0.5,1,0],[0.75,1,0],[1,1,0],[0,0.25,0],[0,0.5,0],[0,0.75,0],[1,0.25,0],[1,0.5,0],[1,0.75,0]];outlineConnect=0;fontColor=#232F3E;fillColor=#E7157B;strokeColor=#ffffff;dashed=0;verticalLabelPosition=bottom;verticalAlign=top;align=center;html=1;fontSize=12;fontStyle=0;aspect=fixed;shape=mxgraph.aws4.resourceIcon;resIcon=mxgraph.aws4.systems_manager;" parent="8x82bi2lTyPNWPK4kSOo-1" vertex="1">
          <mxGeometry x="108" y="620" width="78" height="78" as="geometry" />
        </mxCell>
        <mxCell id="8x82bi2lTyPNWPK4kSOo-33" value="&lt;font color=&quot;#000000&quot;&gt;s3&lt;/font&gt;" style="sketch=0;points=[[0,0,0],[0.25,0,0],[0.5,0,0],[0.75,0,0],[1,0,0],[0,1,0],[0.25,1,0],[0.5,1,0],[0.75,1,0],[1,1,0],[0,0.25,0],[0,0.5,0],[0,0.75,0],[1,0.25,0],[1,0.5,0],[1,0.75,0]];outlineConnect=0;fontColor=#232F3E;fillColor=#7AA116;strokeColor=#ffffff;dashed=0;verticalLabelPosition=bottom;verticalAlign=top;align=center;html=1;fontSize=12;fontStyle=0;aspect=fixed;shape=mxgraph.aws4.resourceIcon;resIcon=mxgraph.aws4.s3;" parent="8x82bi2lTyPNWPK4kSOo-1" vertex="1">
          <mxGeometry x="196" y="620" width="78" height="78" as="geometry" />
        </mxCell>
        <mxCell id="6" value="&lt;font color=&quot;#040608&quot;&gt;Regional&lt;/font&gt;" style="sketch=0;outlineConnect=0;fontColor=#232F3E;gradientColor=none;fillColor=#DD344C;strokeColor=none;dashed=0;verticalLabelPosition=bottom;verticalAlign=top;align=center;html=1;fontSize=12;fontStyle=0;aspect=fixed;pointerEvents=1;shape=mxgraph.aws4.sts_alternate;" parent="8x82bi2lTyPNWPK4kSOo-1" vertex="1">
          <mxGeometry x="374" y="620" width="62.79" height="79" as="geometry" />
        </mxCell>
        <mxCell id="BO87fvhiGoIegcTH9E7s-13" value="KMS" style="sketch=0;points=[[0,0,0],[0.25,0,0],[0.5,0,0],[0.75,0,0],[1,0,0],[0,1,0],[0.25,1,0],[0.5,1,0],[0.75,1,0],[1,1,0],[0,0.25,0],[0,0.5,0],[0,0.75,0],[1,0.25,0],[1,0.5,0],[1,0.75,0]];outlineConnect=0;fontColor=#232F3E;fillColor=#DD344C;strokeColor=#ffffff;dashed=0;verticalLabelPosition=bottom;verticalAlign=top;align=center;html=1;fontSize=12;fontStyle=0;aspect=fixed;shape=mxgraph.aws4.resourceIcon;resIcon=mxgraph.aws4.key_management_service;" parent="8x82bi2lTyPNWPK4kSOo-1" vertex="1">
          <mxGeometry x="447" y="620" width="78" height="78" as="geometry" />
        </mxCell>
        <mxCell id="BO87fvhiGoIegcTH9E7s-14" value="" style="edgeStyle=orthogonalEdgeStyle;rounded=0;orthogonalLoop=1;jettySize=auto;html=1;entryX=0.5;entryY=1;entryDx=0;entryDy=0;entryPerimeter=0;startArrow=classic;startFill=1;exitX=0.5;exitY=0;exitDx=0;exitDy=0;exitPerimeter=0;" parent="8x82bi2lTyPNWPK4kSOo-1" source="BO87fvhiGoIegcTH9E7s-13" target="8x82bi2lTyPNWPK4kSOo-21" edge="1">
          <mxGeometry relative="1" as="geometry">
            <mxPoint x="510" y="630" as="sourcePoint" />
            <mxPoint x="229" y="568" as="targetPoint" />
            <Array as="points">
              <mxPoint x="486" y="580" />
              <mxPoint x="214" y="580" />
            </Array>
          </mxGeometry>
        </mxCell>
        <mxCell id="BO87fvhiGoIegcTH9E7s-16" value="Autoscaling" style="sketch=0;points=[[0,0,0],[0.25,0,0],[0.5,0,0],[0.75,0,0],[1,0,0],[0,1,0],[0.25,1,0],[0.5,1,0],[0.75,1,0],[1,1,0],[0,0.25,0],[0,0.5,0],[0,0.75,0],[1,0.25,0],[1,0.5,0],[1,0.75,0]];outlineConnect=0;fontColor=#232F3E;fillColor=#ED7100;strokeColor=#ffffff;dashed=0;verticalLabelPosition=bottom;verticalAlign=top;align=center;html=1;fontSize=12;fontStyle=0;aspect=fixed;shape=mxgraph.aws4.resourceIcon;resIcon=mxgraph.aws4.auto_scaling3;" parent="8x82bi2lTyPNWPK4kSOo-1" vertex="1">
          <mxGeometry x="536" y="620" width="78" height="78" as="geometry" />
        </mxCell>
        <mxCell id="BO87fvhiGoIegcTH9E7s-17" value="" style="edgeStyle=orthogonalEdgeStyle;rounded=0;orthogonalLoop=1;jettySize=auto;html=1;entryX=0.5;entryY=1;entryDx=0;entryDy=0;entryPerimeter=0;startArrow=classic;startFill=1;exitX=0.5;exitY=0;exitDx=0;exitDy=0;exitPerimeter=0;" parent="8x82bi2lTyPNWPK4kSOo-1" source="BO87fvhiGoIegcTH9E7s-16" target="8x82bi2lTyPNWPK4kSOo-21" edge="1">
          <mxGeometry relative="1" as="geometry">
            <mxPoint x="602" y="631" as="sourcePoint" />
            <mxPoint x="229" y="568" as="targetPoint" />
            <Array as="points">
              <mxPoint x="575" y="580" />
              <mxPoint x="214" y="580" />
            </Array>
          </mxGeometry>
        </mxCell>
        <mxCell id="BO87fvhiGoIegcTH9E7s-18" value="Cloudwatch" style="sketch=0;points=[[0,0,0],[0.25,0,0],[0.5,0,0],[0.75,0,0],[1,0,0],[0,1,0],[0.25,1,0],[0.5,1,0],[0.75,1,0],[1,1,0],[0,0.25,0],[0,0.5,0],[0,0.75,0],[1,0.25,0],[1,0.5,0],[1,0.75,0]];points=[[0,0,0],[0.25,0,0],[0.5,0,0],[0.75,0,0],[1,0,0],[0,1,0],[0.25,1,0],[0.5,1,0],[0.75,1,0],[1,1,0],[0,0.25,0],[0,0.5,0],[0,0.75,0],[1,0.25,0],[1,0.5,0],[1,0.75,0]];outlineConnect=0;fontColor=#232F3E;fillColor=#E7157B;strokeColor=#ffffff;dashed=0;verticalLabelPosition=bottom;verticalAlign=top;align=center;html=1;fontSize=12;fontStyle=0;aspect=fixed;shape=mxgraph.aws4.resourceIcon;resIcon=mxgraph.aws4.cloudwatch_2;" parent="8x82bi2lTyPNWPK4kSOo-1" vertex="1">
          <mxGeometry x="625" y="620" width="78" height="78" as="geometry" />
        </mxCell>
        <mxCell id="BO87fvhiGoIegcTH9E7s-19" value="" style="edgeStyle=orthogonalEdgeStyle;rounded=0;orthogonalLoop=1;jettySize=auto;html=1;entryX=0.5;entryY=1;entryDx=0;entryDy=0;entryPerimeter=0;startArrow=classic;startFill=1;exitX=0.5;exitY=0;exitDx=0;exitDy=0;exitPerimeter=0;" parent="8x82bi2lTyPNWPK4kSOo-1" source="BO87fvhiGoIegcTH9E7s-18" target="8x82bi2lTyPNWPK4kSOo-21" edge="1">
          <mxGeometry relative="1" as="geometry">
            <mxPoint x="702" y="630" as="sourcePoint" />
            <mxPoint x="229" y="568" as="targetPoint" />
            <Array as="points">
              <mxPoint x="664" y="580" />
              <mxPoint x="214" y="580" />
            </Array>
          </mxGeometry>
        </mxCell>
        <mxCell id="BO87fvhiGoIegcTH9E7s-20" value="EC2" style="sketch=0;points=[[0,0,0],[0.25,0,0],[0.5,0,0],[0.75,0,0],[1,0,0],[0,1,0],[0.25,1,0],[0.5,1,0],[0.75,1,0],[1,1,0],[0,0.25,0],[0,0.5,0],[0,0.75,0],[1,0.25,0],[1,0.5,0],[1,0.75,0]];outlineConnect=0;fontColor=#232F3E;fillColor=#ED7100;strokeColor=#ffffff;dashed=0;verticalLabelPosition=bottom;verticalAlign=top;align=center;html=1;fontSize=12;fontStyle=0;aspect=fixed;shape=mxgraph.aws4.resourceIcon;resIcon=mxgraph.aws4.ec2;" parent="8x82bi2lTyPNWPK4kSOo-1" vertex="1">
          <mxGeometry x="713" y="620" width="78" height="78" as="geometry" />
        </mxCell>
        <mxCell id="BO87fvhiGoIegcTH9E7s-21" value="" style="edgeStyle=orthogonalEdgeStyle;rounded=0;orthogonalLoop=1;jettySize=auto;html=1;entryX=0.5;entryY=1;entryDx=0;entryDy=0;entryPerimeter=0;startArrow=classic;startFill=1;exitX=0.5;exitY=0;exitDx=0;exitDy=0;exitPerimeter=0;" parent="8x82bi2lTyPNWPK4kSOo-1" source="BO87fvhiGoIegcTH9E7s-20" target="8x82bi2lTyPNWPK4kSOo-21" edge="1">
          <mxGeometry relative="1" as="geometry">
            <mxPoint x="802" y="630" as="sourcePoint" />
            <mxPoint x="229" y="568" as="targetPoint" />
            <Array as="points">
              <mxPoint x="752" y="580" />
              <mxPoint x="214" y="580" />
            </Array>
          </mxGeometry>
        </mxCell>
        <mxCell id="iWokAtj7TWv6FzPHpnEX-6" value="ELB" style="sketch=0;points=[[0,0,0],[0.25,0,0],[0.5,0,0],[0.75,0,0],[1,0,0],[0,1,0],[0.25,1,0],[0.5,1,0],[0.75,1,0],[1,1,0],[0,0.25,0],[0,0.5,0],[0,0.75,0],[1,0.25,0],[1,0.5,0],[1,0.75,0]];outlineConnect=0;fontColor=#232F3E;fillColor=#ED7100;strokeColor=#ffffff;dashed=0;verticalLabelPosition=bottom;verticalAlign=top;align=center;html=1;fontSize=12;fontStyle=0;aspect=fixed;shape=mxgraph.aws4.resourceIcon;resIcon=mxgraph.aws4.elastic_load_balancing;" parent="8x82bi2lTyPNWPK4kSOo-1" vertex="1">
          <mxGeometry x="284" y="620" width="78" height="78" as="geometry" />
        </mxCell>
        <mxCell id="IQ0gG1SGrNlFWIQBKOv4-6" value="Secrets Manager" style="sketch=0;points=[[0,0,0],[0.25,0,0],[0.5,0,0],[0.75,0,0],[1,0,0],[0,1,0],[0.25,1,0],[0.5,1,0],[0.75,1,0],[1,1,0],[0,0.25,0],[0,0.5,0],[0,0.75,0],[1,0.25,0],[1,0.5,0],[1,0.75,0]];outlineConnect=0;fontColor=#232F3E;fillColor=#DD344C;strokeColor=#ffffff;dashed=0;verticalLabelPosition=bottom;verticalAlign=top;align=center;html=1;fontSize=12;fontStyle=0;aspect=fixed;shape=mxgraph.aws4.resourceIcon;resIcon=mxgraph.aws4.secrets_manager;" parent="8x82bi2lTyPNWPK4kSOo-1" vertex="1">
          <mxGeometry x="801" y="621" width="78" height="78" as="geometry" />
        </mxCell>
        <mxCell id="IQ0gG1SGrNlFWIQBKOv4-7" value="" style="edgeStyle=orthogonalEdgeStyle;rounded=0;orthogonalLoop=1;jettySize=auto;html=1;entryX=0.5;entryY=1;entryDx=0;entryDy=0;entryPerimeter=0;startArrow=classic;startFill=1;exitX=0.5;exitY=0;exitDx=0;exitDy=0;exitPerimeter=0;" parent="8x82bi2lTyPNWPK4kSOo-1" source="IQ0gG1SGrNlFWIQBKOv4-6" target="8x82bi2lTyPNWPK4kSOo-21" edge="1">
          <mxGeometry relative="1" as="geometry">
            <mxPoint x="762" y="630" as="sourcePoint" />
            <mxPoint x="224" y="570" as="targetPoint" />
            <Array as="points">
              <mxPoint x="840" y="580" />
              <mxPoint x="214" y="580" />
            </Array>
          </mxGeometry>
        </mxCell>
        <mxCell id="z1nCWPi0u-KkY_GQBQRR-9" value="" style="edgeStyle=orthogonalEdgeStyle;rounded=0;orthogonalLoop=1;jettySize=auto;html=1;" edge="1" parent="8x82bi2lTyPNWPK4kSOo-1" source="z1nCWPi0u-KkY_GQBQRR-8" target="cZ6HLcwP5YPC_tFZM-lf-6">
          <mxGeometry relative="1" as="geometry" />
        </mxCell>
        <mxCell id="z1nCWPi0u-KkY_GQBQRR-8" value="WAF" style="sketch=0;points=[[0,0,0],[0.25,0,0],[0.5,0,0],[0.75,0,0],[1,0,0],[0,1,0],[0.25,1,0],[0.5,1,0],[0.75,1,0],[1,1,0],[0,0.25,0],[0,0.5,0],[0,0.75,0],[1,0.25,0],[1,0.5,0],[1,0.75,0]];outlineConnect=0;fontColor=#232F3E;fillColor=#DD344C;strokeColor=#ffffff;dashed=0;verticalLabelPosition=bottom;verticalAlign=top;align=center;html=1;fontSize=12;fontStyle=0;aspect=fixed;shape=mxgraph.aws4.resourceIcon;resIcon=mxgraph.aws4.waf;" vertex="1" parent="8x82bi2lTyPNWPK4kSOo-1">
          <mxGeometry x="635" y="270" width="78" height="78" as="geometry" />
        </mxCell>
        <mxCell id="z1nCWPi0u-KkY_GQBQRR-10" value="" style="edgeStyle=orthogonalEdgeStyle;rounded=0;orthogonalLoop=1;jettySize=auto;html=1;entryX=0;entryY=0.5;entryDx=0;entryDy=0;entryPerimeter=0;" edge="1" parent="8x82bi2lTyPNWPK4kSOo-1" source="N7j_AR3H26S9qxAbAxP2-12" target="z1nCWPi0u-KkY_GQBQRR-8">
          <mxGeometry relative="1" as="geometry">
            <mxPoint x="723" y="319" as="sourcePoint" />
            <mxPoint x="750" y="319" as="targetPoint" />
            <Array as="points">
              <mxPoint x="588" y="126" />
              <mxPoint x="588" y="309" />
            </Array>
          </mxGeometry>
        </mxCell>
        <mxCell id="8x82bi2lTyPNWPK4kSOo-10" value="" style="edgeStyle=orthogonalEdgeStyle;rounded=0;orthogonalLoop=1;jettySize=auto;html=1;entryX=0.5;entryY=0;entryDx=0;entryDy=0;" parent="1" source="8x82bi2lTyPNWPK4kSOo-2" target="8x82bi2lTyPNWPK4kSOo-7" edge="1">
          <mxGeometry relative="1" as="geometry">
            <mxPoint x="-162" y="285.5" as="targetPoint" />
          </mxGeometry>
        </mxCell>
        <mxCell id="8x82bi2lTyPNWPK4kSOo-2" value="Github Actions" style="dashed=0;outlineConnect=0;html=1;align=center;labelPosition=center;verticalLabelPosition=bottom;verticalAlign=top;shape=mxgraph.weblogos.github" parent="1" vertex="1">
          <mxGeometry x="-173.5" y="30" width="75" height="75" as="geometry" />
        </mxCell>
        <mxCell id="5aaCbgGbesECD_f8T4DI-7" value="Developer Env" style="sketch=0;pointerEvents=1;shadow=0;dashed=0;html=1;strokeColor=none;fillColor=#505050;labelPosition=center;verticalLabelPosition=bottom;verticalAlign=top;outlineConnect=0;align=center;shape=mxgraph.office.devices.laptop;" parent="1" vertex="1">
          <mxGeometry x="-353.09000000000003" y="45" width="90" height="60" as="geometry" />
        </mxCell>
        <mxCell id="5aaCbgGbesECD_f8T4DI-11" value="" style="edgeStyle=orthogonalEdgeStyle;rounded=0;orthogonalLoop=1;jettySize=auto;html=1;fillColor=#e1d5e7;strokeColor=#BF93D4;strokeWidth=5;startArrow=none;startFill=0;endArrow=none;endFill=0;curved=1;" parent="1" source="5aaCbgGbesECD_f8T4DI-7" target="5aaCbgGbesECD_f8T4DI-8" edge="1">
          <mxGeometry relative="1" as="geometry" />
        </mxCell>
        <mxCell id="z1nCWPi0u-KkY_GQBQRR-6" value="External Container&lt;br&gt;Registry(s)" style="image;aspect=fixed;html=1;points=[];align=center;fontSize=12;image=img/lib/azure2/containers/Container_Registries.svg;" vertex="1" parent="1">
          <mxGeometry x="-778.03" y="920" width="78.03" height="70" as="geometry" />
        </mxCell>
        <mxCell id="z1nCWPi0u-KkY_GQBQRR-7" value="" style="edgeStyle=orthogonalEdgeStyle;rounded=0;orthogonalLoop=1;jettySize=auto;html=1;" edge="1" parent="1" source="8x82bi2lTyPNWPK4kSOo-18" target="z1nCWPi0u-KkY_GQBQRR-6">
          <mxGeometry relative="1" as="geometry" />
        </mxCell>
      </root>
    </mxGraphModel>
  </diagram>
</mxfile>
